<mxfile>
    <diagram id="Scz29FppWpcDCeNLY70X" name="Page-1">
        <mxGraphModel dx="946" dy="544" grid="1" gridSize="10" guides="1" tooltips="1" connect="1" arrows="1" fold="1" page="1" pageScale="1" pageWidth="1100" pageHeight="850" math="0" shadow="0">
            <root>
                <mxCell id="0"/>
                <mxCell id="1" parent="0"/>
                <mxCell id="3" value="Sign up for service" style="rhombus;whiteSpace=wrap;html=1;" vertex="1" parent="1">
                    <mxGeometry x="470" y="160" width="170" height="70" as="geometry"/>
                </mxCell>
                <mxCell id="4" value="Steps to deploy parrelized Prefect Flow to the cloud" style="rounded=0;whiteSpace=wrap;html=1;" vertex="1" parent="1">
                    <mxGeometry x="470" y="30" width="170" height="60" as="geometry"/>
                </mxCell>
                <mxCell id="6" value="Coiled" style="rounded=0;whiteSpace=wrap;html=1;" vertex="1" parent="1">
                    <mxGeometry x="190" y="165" width="120" height="60" as="geometry"/>
                </mxCell>
                <mxCell id="7" value="ECS" style="rounded=0;whiteSpace=wrap;html=1;" vertex="1" parent="1">
                    <mxGeometry x="690" y="160" width="120" height="60" as="geometry"/>
                </mxCell>
                <mxCell id="8" value="Register Credentials on local machine" style="rhombus;whiteSpace=wrap;html=1;spacingLeft=0;spacing=33;" vertex="1" parent="1">
                    <mxGeometry x="470" y="270" width="170" height="70" as="geometry"/>
                </mxCell>
                <mxCell id="9" value="" style="endArrow=classic;html=1;entryX=0.5;entryY=0;entryDx=0;entryDy=0;exitX=0.5;exitY=1;exitDx=0;exitDy=0;" edge="1" parent="1" source="3" target="8">
                    <mxGeometry width="50" height="50" relative="1" as="geometry">
                        <mxPoint x="630" y="270" as="sourcePoint"/>
                        <mxPoint x="680" y="220" as="targetPoint"/>
                    </mxGeometry>
                </mxCell>
                <mxCell id="11" value="Prepare Software Enviroment" style="rhombus;whiteSpace=wrap;html=1;spacingLeft=0;spacing=33;" vertex="1" parent="1">
                    <mxGeometry x="470" y="420" width="170" height="70" as="geometry"/>
                </mxCell>
                <mxCell id="12" value="" style="endArrow=classic;html=1;entryX=0.5;entryY=0;entryDx=0;entryDy=0;exitX=0.5;exitY=1;exitDx=0;exitDy=0;" edge="1" parent="1" source="8" target="11">
                    <mxGeometry width="50" height="50" relative="1" as="geometry">
                        <mxPoint x="565" y="240" as="sourcePoint"/>
                        <mxPoint x="565" y="290" as="targetPoint"/>
                    </mxGeometry>
                </mxCell>
                <mxCell id="17" value="" style="shape=image;verticalLabelPosition=bottom;labelBackgroundColor=#ffffff;verticalAlign=top;aspect=fixed;imageAspect=0;image=data:image/png,iVBORw0KGgoAAAANSUhEUgAAAaIAAAA/CAIAAAAt5lsRAAAZSUlEQVR4Ae2d+VdTSdrH33+lf5ozPdrdYzMKKoraA4gNjg2yCaJBRHYlsqhsLSL7sO8CjiQgAs0iIDuRHWKQJUBYwxZCIAnZc1NHve851HnvuW8SYprptlus+sFTt27VU099KnxvVd1b5f/gKCACiAAicKAJ/M+Bbh1qHCKACCACOJI59CNABBCBA04AydwB72DUPEQAEdAjc52dnSdPnvzD0Tx58qS8vPzDhw/GeMJgME6dOmVMTpQHEUAEvjQCemSupaXl22+//W9AnD17lsFgGLbwUf1is9kzMzOGjRB3Ozo6jhw5QlyiCCKACCACBAFDMtfV1RUaGhofH3/58uXy8nKiDIx0dHRc3Q0MBoPQrO3tbT8/v7/85S+nTp2an5/HcZzFYnl6elIolPHxcRzHm5qaQkNDPT09KysrY2Nji4qKfHx8XFxcBgcHq6qqnJ2d79+/L5fLcRwvLCysqqrCcTw2NvbFixfu7u63b98WiUQ4jn/48CE9Pd3BwSE4OHhtbQ3HcULm6urq0tPT379/r+UtukQEEIEvloAhmautrTUxMSkrK6uvr7eyspLJZASmpaUlFxeXrq4uBoPh7OysUCjgrXfv3vH5fHNz86qqKgzDpqenLS0ta2pq6HT66dOnV1dXaTTamTNnGhsb19fXvb297ezsOjo6cnNzTUxMoqKiXr9+7erqmpCQANUtPz8fx3EHBwdvb++enh5vb+/g4GAcx58/fx4REfH27duCgoKQkBCyzDGZzJcvXxKySziMIogAIvDFEviIzF29ehXDMKVS6efnx2KxCEwYhvX398fHxwcEBJiamgqFQuIWjuPEpLWkpOTx48cAAI1G4+np2dTURKPR7t+//+7dOxzHvb29CwsLcRxXKBT29vZ8Ph/HcTqd7urqSpa5q1evwtlrY2Pj2bNncRyXSqVVVVWRkZEUCsXW1pYsc2Q3UBwRQAQQARzX90EJsTZXW1tLoVDevXunUqkCAwMHBwcJZEtLS+bm5i9fvuRyuVeuXNna2iJukWUuMTHxm2++ObobzMzM6urqaDRaZGQknFR6e3uXlpbiOK5UKt3d3aGRqqoqR0dHssxdv359cXERx/HW1lb4boROp3t4eIyOjvb39zs5OSGZI8NHcUQAEdAi8JHR3F4yV1ZW5u7u/uHDB7VaffnyZS2ZO3fuHHwF8fTp0+joaMFuWF1dVSqVv4nM2dra1tTU4Dg+MTHx008/IZnT6lR0iQggAmQC+5S50dHR7777rqCgwNfX96uvvlpeXiYbtbe3j46OFovFc3Nzx48fz8nJefXqlY2NDZPJ/E1k7vHjxw4ODuXl5T/88MOJEyfIMtfU1ARX9Mj+oDgigAh8yQT0yNzMzExSUhIcK1VUVLx//x4AUFNTw+VyyaS6urqSkpJevHjR2NioJXNsNjs1NXVjYwPHcQ6Hk5mZmZKS0tfX9/79eyaT2dzcDF8RVFZWDg8P4ziu0WhoNBp8wTo2NgZnsq2trf39/TiOl5eXw7W/mZmZjIwMmP/Zs2dJSUltbW0VFRXv3r2bnZ1NTk7GcXxoaKipqQm9giD3FIojAl84AT0y94UTQc1HBBCBA0YAydwB61DUHEQAEdAmgGROmwi6RgQQgQNGAMncAetQ1BxEABHQJoBkTpsIukYEEIEDRgDJ3AHrUNQcRAAR0CaAZE6bCLpGBBCBA0YAydwB61DUHEQAEdAmgGROmwi6RgQQgQNGAMncAetQ1BxEABHQJoBkTpsIukYEEIEDRgDJ3AHrUNQcRAAR0CagLXMfUEAEEAFE4HMmoC1yusdqfvjwAaCACCACiMBnSwDJ3GfbdchxRAARMI4AkjnjOKFciAAi8NkSQDL32XYdchwRQASMI4BkzjhOKBcigAj8CQhIpdIdnaBUKg27hmTOMB90FxFABP4sBNhsdnp6eopOGB0dNewikjnDfNBdRAAR+O0JYBgml8uVSqVGozHeen19fVlZWY9OWF9fN2xk/zLX399v2LTuXaVSWVBQoFAodG8ZSFlYWEhLSzOQYR+3eDxe8G7Y3t6GxZeWlsLCwsLDw9fW1vZhUKtId3d3XV0dTGSxWCEhIXFxcVtbW1rZ9F6WlZXt7OzovfVnSFxdXU1KSvozeIJ8+BwJyGSynp4eGo2Wn59fVFT0yy+/TExMqNVqY9pSX1/f19cnl8sHBgba/i90dnZ+9C9rPzKn0WikUmlJSYlIJPpVmqVUKktLS39VEQDA0tJSTk6OMRSIPFKp9ObNm8Sl3ohYLL548aKWqEVGRk5PT+vN/6sSe3p6mpqayEWCgoKWl5fJKXvFg4KCBALBXnf/8HQ2m21tbf2Hu4Ec+OwIaDSa5eXl2NhYKpUaHh4eGxsbHR0dEhJCpVKfPHmiUCg+OrKDMjc3NwdLUXdDbGxsYmKiWCw2UHw/Mjc+Pu7v7+/l5ZWWltba2qqLe2dnJzMz89WrVzk5OUNDQ7D63t7e1NTUmpoaYr0wLy+vpqYmOzt7cHAQwzBdOwCA/v7+1NRUGo0G70okkqysrI6Ojuzs7N7eXgzDNBrN7OxsQUFBbm5uX18flMXExMRz586lpqbm5uaKxWKlUtnZ2ZmTk1NYWMjhcKCp/cmcQqGor69PT09vaGiAHfPmzZucnJzS0tLNzU1ouba2NjU1tbu7m9wissxpNBo2m52bm1taWkqMt1ksVm5ubkNDQ0BAwL5lTiQStbS0AAC2traePHkCAGCz2XQ6nUajFRYWQk3HMKyvry8rK6u1tTUrK0sulwMA3r59Ozg4WF5enp2dvbS0tLm5WVFRkZmZSafT4YBXrVb39vZmZGQUFxdbWlrCpo2Pj+fl5ZWWlmo9LcgNR3FEABIYGxuLiIigUqnJyckLCwsrKysbGxtMJjMqKopKpaanp/P5fMOsoMxxOBwocPDftra21tbWzMxM4k9J18h+ZC59N9DpdAzD9I4219fX//a3v2VlZS0uLrq4uMzPzwMA5HL5xsbGtWvXpFIp9OPQoUPZ2dl8Pv/mzZt7tVAulzMYjIsXL8IiGxsbhw4dysnJmZ2ddXBw4HK5UqnUz8+vra1teHi4qqoKAKBSqdbX1ykUilAoFIlEGIZtb28XFRUNDAzU1tYeO3YM6tH+ZC4rKysoKGh0dJRGowmFwoWFhYsXLzY3NyclJdnb20Oxlkgk2dnZjx49IuMmy5xAIPD09Ozp6SkvL798+bJard7e3rawsKiuro6Pj7e2tt63zC0vL4eFhQEA5ubmTp06BQCATR4aGmppaYmMjFQoFNPT0//617/a29vDwsIOHTokFAoBADQa7fTp021tbWNjYxMTE2/evCktLWUymXFxcUFBQRiG8Xg8Z2fn4eFhKpVqZmYGHyeWlpYdHR1VVVWhoaHE04vcahRHBCABHo/36NEjKEw8Hq+9vR0O6Hg8HoPBgOkvXrwwjEuvzDEYDAzDenp6kpOTZTKZXgv7kbnx8XFPT08KhVJXV8fj8XTtQpmDc7SkpCRixCeXy8kyd+zYsbdv3wIAkpOTOzo6dO3AFCaTqSVzKysrAAAqlTo6OiqRSAIDAxsaGsbHx4lGak1aMQybnp6uq6urrKw8derU8PAwAGAfMqdQKI4fP06e1ba3t8fGxgIAZDLZ999/z2azoc9FRUUGZK6xsdHLy+v58+fl5eUmJiYTExPl5eXe3t6a3XDlypW9ZI7D4VRWVr58+VIkEsGKVldXK3cDXJ7QK3OOjo4YhkmlUn9/fz6f39DQANc6x8bGyDJHdlgul/f09FRXV5eWlv74449CobCmpiY9PR0A0NfXd+7cOQDAo0ePbt68+fz5cxqN5ubm9mdeT9zrp4XSPxkBFosVGhpKpVLv3bsnk8mys7OhtHV0dExMTMBJaGRkpGF/9MpcWVnZ4OBgb29vSkpKV1eXXgv7kTkAAJ/PT0tLKykpCQ0NJcSFqADKHPzDy8zMbGhogLe0ZO748eMzMzMAgOzs7OrqaqK4VkRX5uAAJDQ0lMlkajSapaWlkpKSGzduUKlUWFZL5mZnZ69du9bS0jI2NmZpaQlfnuxD5ra2to4ePUpW9sbGxoyMDFipubn5yMgIjBuWudLS0sePH4//X5BIJAUFBREREbCsn5/fXjK3uLjY1NTU2dlJaAqPx2vaDZAJIXOzs7PEaO769etQiH18fHg8XkVFxdOnTwEAXC6XLHN0Oh06AACg0+ne3t4DAwODg4M2NjZbW1vFxcUlJSUAgLGxMSsrKwBAcHBwamoqbASbzdY7ricMosgXToDL5UZHR1Op1Lt3725vb9fX11Op1AcPHiwsLAwMDEDJKy0tNUxJr8zBsvDf31LmeDze1tbWs2fPxGKxn58f/AMj+wdlrqOjQygUBgUFwSUzOG8lj+aOHDny8uVLiURy9+5dFotFtkCOG5Y5tVrN4/GkUuno6OjZs2fhtFEul/v6+m5ubsLFu4GBgfv372MYtrq6+t1330GZUygUTk5OIyMj5NlWXFxcf3+/gffcly5dam5ulslkGxsbKpVqYGAgMDBwe3t7amrq+++/h8NMAICuzIWEhExOTkLLIyMjISEhW1tbYrF4ZmZGrVZ3dXW5u7vLZLLNzU0HB4e9ZI6MRW98fX2dSqXCMbypqSmctP7www9ra2tzc3M+Pj7b29sMBiMsLEwkEjU1NZFlrqKiAtrUaDQxMTHt7e0YhrW0tECZ6+3tffz4sUajaW5uPnPmDADg2bNnUJHFYvHKyspeq6t6/USJXyCB7u7usLAwKpWal5e3ubk5OTnJ5XJXV1fhZDYuLo7L5RrG8kllrrW1NSgo6MKFC7du3aLRaLqPcShzYWFhV65ciYqKEovFEokkPj6eQqGYmJhQKJTKykoAwJEjR/z8/Nzc3GJiYogFO612PnjwwNHR8dtvv71x40ZLSwtcmyOP5iQSSUJCwvXr1z09PeFwAwCAYRidTnd3dw8MDNza2uLz+WFhYcHBwTExMVZWVlDmNBpNXV2do6Pj7du3iUp7eno8PDyCgoKWlpaIRHLk7du3fn5+Hh4esF07OzuxsbFubm6urq4VFRUajUapVN64ccPKysrCwuLGjRtwXRIAUF1dffXq1fDw8K2tLblcnpmZ6eHh4enpSaVSFQqFUql89OiRv79/dHS0u7v7vmVOKpXGxMT4+/tHREQcO3YMypy1tbWvr6+Li0tdXR2GYUKh8P79++7u7vfu3Tt8+LBYLIZrc4TMwZnptWvXQkJCUlJSoMxJJJKHDx8GBQUFBwdbWFgAACQSSVxcnIeHB4VCSUtLIz8tyMRQHBGABNRq9dDQUHR09N27d1NSUsrKykpKSmJiYuD7By6X+9En5fT0NJfL1XoF8XuN5qDT5DmOVkdCmdtLuYjMJ06cIFSASESR35ZAbW2tr68v2SaGYTKZTK1Ws1gsc3NzA6/hyaVQHBH4TQjs7OxUV1cnJCRER0fHxMSkpaX19PSoVCrjjX9SmZuamtrLMyRze5H59Om6MicSiVJSUiIjI+/cudPe3v7pXUI1IgJKpRIu2uzjKftJZQ51FSKACCACn54Aj8d7+PAhea4K4/fu3SM2NWl5tc83rVpW0CUigAggAp+MAPwId+P/B/ihu14fkMzpxYISEQFE4OAQQDJ3cPoStQQRQAT0Eti/zLW1tem1+KsSh4eHiY/vORyOl5cXhUKZnJw0xkhGRsbc3JxuTj6f77QbyN/x6mbTmzIyMlJWVqb31u+dGBYWtrCw8HvXguwjAl8ggf3InEajWVlZSUtLm5qa+ugRKIaZcjgcrY1sgYGBg4ODhkvBu0FBQXCvmG5mlUp1586dvb59081PpMzOzmptuSdu/ZcRA/t2oeULFy4Yqe//pSeoOCLwpRHYj8wNDQ35+voGBwfT6fTOzs69kFVWVt67dy87OxtulV9eXk5MTIyIiHj9+jUsUlNTExwcnJeXR7agJXN8Pj8zM/PBgwfEpw8TExPR0dH5+fl+fn7Gy9zk5OTDhw9//vnnsbExWN3AwEBkZGROTk52djZMKSgoCA4OJradicXip7shKioKboMl+2l8vLu7m0qlHj9+3M/PLzExUSgUYhjGYDDCw8OTk5OJMwugzCmVytzcXPjwYLFYP//8c1xc3OzsLABgbW0tPT09IyMjNjZW7zDWeJdQTkTgiyKwH5nLyMj497///ezZMwOkioqKPDw8JiYmmpubORyOXC4PDQ0tLCxkMBgnTpxYXFyEZVtaWtzd3cl2tGQuKiqqpKRkcnISnnQiEolMTExevHhRXFxsampqpMxtbW3Z2dlVV1fX1tb+/e9/5/P5arXa3t6+paWluLgY7haAPrS1tcXHx8M4n8//5z//2dvby2Qyz5w586u+YCS3CMbJo7n19XVnZ+exsbHMzEy4Yx8AcOHCheHhYVdXVxqNptFoFhYWHB0de3t729rajh49KhAIpqamTp48OT093draGhUVpVsFkTI5ObmxsUFcqlQqDodD7PaH6fPz84TCAgDUavXU1BQ5BQAwMzNDbJ6FpYyxPDk5Sd7/t5dl8lZolUo1OjpKLqVQKHT3ybLZbHIeuVw+OTmp5SGbzSbvxzDGskKhmJycJPtjjGWxWDw2NkZ+u6frs65lkUg0Pj6utXFIy2ddyzKZTOszVbi/kNxSkUg0NjZG3kggl8unp6fJv9vNzU2tPBKJ5KOWBQIB+bgKuGvzo5YFAoHWx/+6Puta3tjYmJ+fJ7dC12fih218ZD8yNzs7GxAQ4OLikp+fr3cbmkKh+Mc//sFkMgk/+Hz+rVu34L6I8PBw4phMwzInlUrNzc1jY2NTU1NdXV1TU1MZDIatrS08ycPJyclImWMymcROADc3t1evXr1+/TowMFCpVK6vrzs5ORF+asncrVu3AAA7OztmZmarq6tENnLkzZs3abuBSJydnc3MzMzJySF3M1nm2tvbExIS4ADt6NGjUFwsLCzs7OwCAgJgHzc0NDg7O6fuBgsLCwaDMTU15eXlJZfLZ2dng4KCiOp0IyYmJrm5uUS6QCC4dOkScU4MTHd3dyfvlBYKhefOnSsuLiZKAQBsbGy0zog2xvKxY8devXpF2NnL8sTEBJFnY2Pjq6++amxsJFK4XO7JkyfJogYAMDMzI1vmcDhmZmYDAwNEKQCAubk5+fA7YywvLi6ampqSVwyMsdzT0/P111/DsyegA7o+61pub2//5ptvtKRZy2ddy2w2G+4jJlpaX19vaWlJPmGtvb3966+/lkgkRJ6ZmRm4UY9Iefr06eHDh8nSPDQ09FHLZWVlxAmD0JQxlisrK+GZEUTtuj7rWi4oKLh+/Tp5A5Wuz4RB4yP7kTko50+ePPnll198fX3JPsGKd3Z2Dh8+TF5Q5/F4vr6+8IGZkJBAnLJtWOYEAsFPP/20srIi3A0ymay1tZVCocBafHx8jJS5gYGBkJAQWCogIKC2tra+vj40NBQAsLm56eHhQfDSkrk7d+7Asz3MzMyIESiRGUbg0YBkTRcKhSwWa3R0lDyAIstcTU1NVlYWAEAoFJqamkLLp0+fTk9P/+tf/wonpJWVlfn5+bDhQqFQqVROTU35+vqqVKq5uTk/Pz8tN8iXIpGI/FPGMGxnZ4f85Ic7UsnHOGs0GrFYTE6B+k4eCwAAjLEsEonIde1lmTyigTttyaUwDNM9D1bLslqtFolEWh6KxWLyWMAYyxiGiUQisj/GWFapVFqldH3WtQxLaX36r+WzrmW1Wg23HhO9rFQq9ZYiW1ar1Ts7O+QUhUIhEonIKSqV6qOWFQqFVh5jLCsUCrLmAgB0fda1LJfLJRIJ2UNdnwkIxkf2I3Pz8/Orq6v/+c9/BAKBr68v+Y+ZqNjT0xOuMS0vL4t2g7+/P4vFWltbc3R0JJ7JujIXExPT0NAgk8ngj5VCoXR3dwuFwunpaR6PNzMzc+bMGYFAsL6+bmVltZfMYRgWHR0NjxLRaDRzc3POzs7z8/MLCwsWFhYsFmt5efnq1asLCwuDg4PkJ9U+ZI5osuGIt7f3wsKCWq3WaDSTk5OBgYECgaCzs9Pa2hqKC1ybq6mpoVKpUql0aGjIx8dnaWlJIBCwWCyxWGy8zBn2BN1FBL40AvuRuY6OjuvXr588edLR0REeeqFLbXNzk0ql2tjY+Pj4LCwsYBjW3d1tb29vY2OTkJCgVCpVKtX58+fNzc0PHTp0/vx54r0Ei8VycHCwtbWFY5yRkZFr166dP3/e09OTw+FgGFZWVubk5HT79m03N7e9ZE6j0bx588bW1tbBwQGuxJWXl9vZ2f34449FRUXw+Z+Xl2djY+Pl5eXg4AAAWF5evnTpkrm5uYmJyYULF/r6+vh8vjGjOd22600pKCiwtbW9efPm5uamQqFIS0uztrZ2cHAgTqmCModhWEREREVFhUKhKC0tvXTpkp2dXUhICJ/PRzKnFyxKRAQ+SmA/MgeNGjih5KO1/hkybG9vKxQKDocDtezP4BLyARFABH4PAvuXOb0vH34PF38nm5mZmV5eXgEBAfD/iPmdakFmEQFE4A8nsH+Z+8NdRw4gAogAImAMASRzxlBCeRABROAzJoBk7jPuPOQ6IoAIGEMAyZwxlFAeRAAR+IwJIJn7jDsPuY4IIALGEEAyZwwllAcRQAQ+YwK6Mve/ZdAV+zh0EmEAAAAASUVORK5CYII=;" vertex="1" parent="1">
                    <mxGeometry x="30" y="273.5" width="418" height="63" as="geometry"/>
                </mxCell>
                <mxCell id="18" value="&lt;div style=&quot;text-align: center&quot;&gt;&lt;span&gt;There are four ways or any combination of them.&amp;nbsp;&lt;/span&gt;&lt;span&gt;No need for an explicit docker file&lt;/span&gt;&lt;/div&gt;&lt;ol&gt;&lt;li&gt;conda - A list of packages or .yml files&lt;/li&gt;&lt;li&gt;pip - A list of packages or requirements file&lt;/li&gt;&lt;li&gt;container - Path to container repo&lt;/li&gt;&lt;li&gt;post_build - A list of commands to run post build&lt;/li&gt;&lt;/ol&gt;" style="rounded=0;whiteSpace=wrap;html=1;align=left;" vertex="1" parent="1">
                    <mxGeometry x="30" y="387.5" width="410" height="135" as="geometry"/>
                </mxCell>
                <mxCell id="19" value="Upload&amp;nbsp;" style="rhombus;whiteSpace=wrap;html=1;spacingLeft=0;spacing=33;" vertex="1" parent="1">
                    <mxGeometry x="470" y="600" width="170" height="70" as="geometry"/>
                </mxCell>
                <mxCell id="20" value="&lt;div style=&quot;text-align: center&quot;&gt;&lt;ol&gt;&lt;li&gt;&lt;span style=&quot;text-align: left&quot;&gt;Write Dockerfile&lt;/span&gt;&lt;/li&gt;&lt;/ol&gt;&lt;/div&gt;" style="rounded=0;whiteSpace=wrap;html=1;align=left;" vertex="1" parent="1">
                    <mxGeometry x="675" y="430" width="150" height="50" as="geometry"/>
                </mxCell>
                <mxCell id="21" value="&lt;div style=&quot;text-align: center&quot;&gt;&lt;ol&gt;&lt;li&gt;&lt;span style=&quot;text-align: left&quot;&gt;See AWS for details&lt;/span&gt;&lt;/li&gt;&lt;li&gt;&lt;span style=&quot;text-align: left&quot;&gt;[Link]&lt;/span&gt;&lt;/li&gt;&lt;li&gt;&lt;span style=&quot;text-align: left&quot;&gt;[Link]&lt;/span&gt;&lt;/li&gt;&lt;/ol&gt;&lt;/div&gt;" style="rounded=0;whiteSpace=wrap;html=1;align=left;" vertex="1" parent="1">
                    <mxGeometry x="675" y="237.5" width="150" height="135" as="geometry"/>
                </mxCell>
                <mxCell id="22" value="&lt;div style=&quot;text-align: center&quot;&gt;&lt;ol&gt;&lt;li&gt;&lt;span style=&quot;text-align: left&quot;&gt;Register with container repoisitory&lt;/span&gt;&lt;/li&gt;&lt;li&gt;&lt;span style=&quot;text-align: left&quot;&gt;Upload to container repo&lt;/span&gt;&lt;/li&gt;&lt;/ol&gt;&lt;/div&gt;" style="rounded=0;whiteSpace=wrap;html=1;align=left;" vertex="1" parent="1">
                    <mxGeometry x="675" y="567.5" width="225" height="135" as="geometry"/>
                </mxCell>
                <mxCell id="23" value="&lt;div&gt;&lt;div style=&quot;color: rgb(212 , 212 , 212) ; background-color: rgb(30 , 30 , 30) ; font-family: &amp;#34;droid sans mono&amp;#34; , monospace , monospace , &amp;#34;droid sans fallback&amp;#34; ; font-size: 14px ; line-height: 19px&quot;&gt;&lt;div&gt;coiled.create_software_environment(&lt;/div&gt;&lt;div&gt;    &lt;span style=&quot;color: #6a9955&quot;&gt;# name is the software enviroment name in coiled.  i.e : &quot;&amp;lt;account&amp;gt;/&amp;lt;name&amp;gt;&quot;&lt;/span&gt;&lt;/div&gt;&lt;div&gt;    &lt;span style=&quot;color: #9cdcfe&quot;&gt;name&lt;/span&gt;=&lt;span style=&quot;color: #ce9178&quot;&gt;&quot;gryBox/py38Pcoiled&quot;&lt;/span&gt;, &lt;/div&gt;&lt;div&gt;    &lt;span style=&quot;color: #9cdcfe&quot;&gt;conda&lt;/span&gt;=&lt;span style=&quot;color: #ce9178&quot;&gt;&quot;~/demos/blogs/coiled-prefect-demo/py38mlflow.yml&quot;&lt;/span&gt;&lt;/div&gt;&lt;div&gt;    &lt;/div&gt;&lt;div&gt;)&lt;/div&gt;&lt;/div&gt;&lt;/div&gt;" style="rounded=0;whiteSpace=wrap;html=1;align=left;" vertex="1" parent="1">
                    <mxGeometry x="30" y="580" width="420" height="135" as="geometry"/>
                </mxCell>
                <mxCell id="24" value="" style="endArrow=classic;html=1;entryX=0.5;entryY=0;entryDx=0;entryDy=0;exitX=0.5;exitY=1;exitDx=0;exitDy=0;" edge="1" parent="1" source="11" target="19">
                    <mxGeometry width="50" height="50" relative="1" as="geometry">
                        <mxPoint x="565" y="350" as="sourcePoint"/>
                        <mxPoint x="565" y="430" as="targetPoint"/>
                    </mxGeometry>
                </mxCell>
                <mxCell id="25" value="Run Flow" style="rhombus;whiteSpace=wrap;html=1;spacingLeft=0;spacing=33;" vertex="1" parent="1">
                    <mxGeometry x="470" y="870" width="170" height="70" as="geometry"/>
                </mxCell>
                <mxCell id="27" value="&lt;meta charset=&quot;utf-8&quot;&gt;&lt;div style=&quot;color: rgb(212, 212, 212); background-color: rgb(30, 30, 30); font-family: &amp;quot;droid sans mono&amp;quot;, monospace, monospace, &amp;quot;droid sans fallback&amp;quot;; font-weight: normal; font-size: 14px; line-height: 19px;&quot;&gt;&lt;div&gt;&lt;span style=&quot;color: #c586c0&quot;&gt;from&lt;/span&gt;&lt;span style=&quot;color: #d4d4d4&quot;&gt; prefect.executors &lt;/span&gt;&lt;span style=&quot;color: #c586c0&quot;&gt;import&lt;/span&gt;&lt;span style=&quot;color: #d4d4d4&quot;&gt; DaskExecutor&lt;/span&gt;&lt;/div&gt;&lt;br&gt;&lt;div&gt;&lt;span style=&quot;color: #d4d4d4&quot;&gt;executor = DaskExecutor(&lt;/span&gt;&lt;/div&gt;&lt;div&gt;&lt;span style=&quot;color: #d4d4d4&quot;&gt;    &lt;/span&gt;&lt;span style=&quot;color: #9cdcfe&quot;&gt;cluster_class&lt;/span&gt;&lt;span style=&quot;color: #d4d4d4&quot;&gt;=coiled.Cluster,&lt;/span&gt;&lt;/div&gt;&lt;div&gt;&lt;span style=&quot;color: #d4d4d4&quot;&gt;    &lt;/span&gt;&lt;span style=&quot;color: #9cdcfe&quot;&gt;cluster_kwargs&lt;/span&gt;&lt;span style=&quot;color: #d4d4d4&quot;&gt;={&lt;/span&gt;&lt;/div&gt;&lt;div&gt;&lt;span style=&quot;color: #d4d4d4&quot;&gt;        &lt;/span&gt;&lt;span style=&quot;color: #ce9178&quot;&gt;&quot;software&quot;&lt;/span&gt;&lt;span style=&quot;color: #d4d4d4&quot;&gt;: &lt;/span&gt;&lt;span style=&quot;color: #ce9178&quot;&gt;&quot;grybox/py38pcoiled&quot;&lt;/span&gt;&lt;span style=&quot;color: #d4d4d4&quot;&gt;,&lt;/span&gt;&lt;/div&gt;&lt;div&gt;&lt;span style=&quot;color: #d4d4d4&quot;&gt;        &lt;/span&gt;&lt;span style=&quot;color: #ce9178&quot;&gt;&quot;shutdown_on_close&quot;&lt;/span&gt;&lt;span style=&quot;color: #d4d4d4&quot;&gt;: &lt;/span&gt;&lt;span style=&quot;color: #569cd6&quot;&gt;False&lt;/span&gt;&lt;span style=&quot;color: #d4d4d4&quot;&gt;,&lt;/span&gt;&lt;/div&gt;&lt;div&gt;&lt;span style=&quot;color: #d4d4d4&quot;&gt;        &lt;/span&gt;&lt;span style=&quot;color: #ce9178&quot;&gt;&quot;name&quot;&lt;/span&gt;&lt;span style=&quot;color: #d4d4d4&quot;&gt;: &lt;/span&gt;&lt;span style=&quot;color: #ce9178&quot;&gt;&quot;prefect-play&quot;&lt;/span&gt;&lt;span style=&quot;color: #d4d4d4&quot;&gt;,&lt;/span&gt;&lt;/div&gt;&lt;div&gt;&lt;span style=&quot;color: #d4d4d4&quot;&gt;    },&lt;/span&gt;&lt;/div&gt;&lt;div&gt;&lt;span style=&quot;color: #d4d4d4&quot;&gt;)&lt;/span&gt;&lt;/div&gt;&lt;br&gt;&lt;br&gt;&lt;div&gt;&lt;span style=&quot;color: #d4d4d4&quot;&gt;flow.run(&lt;/span&gt;&lt;/div&gt;&lt;div&gt;&lt;span style=&quot;color: #d4d4d4&quot;&gt;    &lt;/span&gt;&lt;span style=&quot;color: #9cdcfe&quot;&gt;executor&lt;/span&gt;&lt;span style=&quot;color: #d4d4d4&quot;&gt;=executor&lt;/span&gt;&lt;/div&gt;&lt;div&gt;&lt;span style=&quot;color: #d4d4d4&quot;&gt;)&lt;/span&gt;&lt;/div&gt;&lt;/div&gt;" style="text;whiteSpace=wrap;html=1;" vertex="1" parent="1">
                    <mxGeometry x="30" y="760" width="430" height="300" as="geometry"/>
                </mxCell>
                <mxCell id="29" value="" style="endArrow=classic;html=1;entryX=0.5;entryY=0;entryDx=0;entryDy=0;exitX=0.5;exitY=1;exitDx=0;exitDy=0;" edge="1" parent="1" source="19" target="25">
                    <mxGeometry width="50" height="50" relative="1" as="geometry">
                        <mxPoint x="565" y="500" as="sourcePoint"/>
                        <mxPoint x="565" y="610" as="targetPoint"/>
                    </mxGeometry>
                </mxCell>
            </root>
        </mxGraphModel>
    </diagram>
</mxfile>